<?xml version="1.0" encoding="iso-8859-1"?>
<!-- Generator: Adobe Illustrator 19.0.0, SVG Export Plug-In . SVG Version: 6.00 Build 0)  -->
<svg version="1.1" id="Layer_1" xmlns="http://www.w3.org/2000/svg" xmlns:xlink="http://www.w3.org/1999/xlink" x="0px" y="0px"
	 viewBox="0 0 450 450" style="enable-background:new 0 0 450 450;" xml:space="preserve">
<path d="M405,69.715H237.42c-6.192-17.459-22.865-30-42.42-30H45c-24.813,0-45,20.187-45,45v325.57h450v-225.57v-70
	C450,89.901,429.813,69.715,405,69.715z M420,114.715v27.58c-4.695-1.665-9.742-2.58-15-2.58H240v-40h165
	C413.271,99.715,420,106.443,420,114.715z M420,380.285H30V84.715c0-8.271,6.729-15,15-15h150c8.271,0,15,6.729,15,15v85h195
	c8.271,0,15,6.729,15,15V380.285z"/>
<g>
</g>
<g>
</g>
<g>
</g>
<g>
</g>
<g>
</g>
<g>
</g>
<g>
</g>
<g>
</g>
<g>
</g>
<g>
</g>
<g>
</g>
<g>
</g>
<g>
</g>
<g>
</g>
<g>
</g>
</svg>
